<?xml version="1.0" encoding="UTF-8" standalone="no"?>
<!-- Created with Inkscape (http://www.inkscape.org/) -->

<svg
   xmlns:dc="http://purl.org/dc/elements/1.1/"
   xmlns:cc="http://creativecommons.org/ns#"
   xmlns:rdf="http://www.w3.org/1999/02/22-rdf-syntax-ns#"
   xmlns:svg="http://www.w3.org/2000/svg"
   xmlns="http://www.w3.org/2000/svg"
   xmlns:sodipodi="http://sodipodi.sourceforge.net/DTD/sodipodi-0.dtd"
   xmlns:inkscape="http://www.inkscape.org/namespaces/inkscape"
   id="svg4562"
   sodipodi:docname="wireless-sol.svg"
   xml:space="preserve"
   inkscape:export-filename="C:\joanna\Gfx\drawings_vector\admin\ryanlerch_simple_sun_motif_ok.png"
   viewBox="0 0 350.00001 349.99999"
   sodipodi:version="0.32"
   inkscape:export-xdpi="150"
   version="1.0"
   inkscape:output_extension="org.inkscape.output.svg.inkscape"
   inkscape:export-ydpi="150"
   inkscape:version="0.91 r13725"><defs
     id="defs39" /><sodipodi:namedview
     id="base"
     bordercolor="#666666"
     inkscape:pageshadow="2"
     guidetolerance="10.0"
     pagecolor="#ffffff"
     gridtolerance="10.0"
     inkscape:zoom="2"
     objecttolerance="10.0"
     borderopacity="1.0"
     inkscape:current-layer="g4569"
     inkscape:cx="165.63576"
     inkscape:cy="176.70105"
     inkscape:window-y="88"
     inkscape:window-x="0"
     inkscape:window-height="826"
     showgrid="false"
     inkscape:pageopacity="0.0"
     inkscape:window-width="1440"
     inkscape:window-maximized="1"
     fit-margin-top="0"
     fit-margin-left="0"
     fit-margin-right="0"
     fit-margin-bottom="0"
     units="px" /><g
     id="g4569"
     inkscape:label="guide"
     inkscape:groupmode="layer"
     transform="matrix(1.25,0,0,-1.25,-2.867804,817.61981)"
     style="display:inline"><path
       id="path4595"
       style="fill:#f9a749"
       d="m 271.02065,526.93469 0.089,-0.014 -0.089,0.014"
       inkscape:connector-curvature="0" /><path
       inkscape:connector-curvature="0"
       d="m 147.04034,606.71724 c 0.34608,0 0.71524,-0.11536 0.94596,0.25379 0.25379,-1.33817 0.48451,-2.65328 0.85366,-4.10681 l -0.36915,-0.23072 -0.48451,1.19974 c -1.31511,-3.6223 0.85366,-7.24461 1.45353,-10.72848 1.19975,-1.56889 1.19975,-3.73766 1.08439,-5.79107 -1.45354,0.25379 -0.71524,-1.5689 -1.68426,-1.79962 0.23072,-0.59987 0.71523,-1.08438 0.59987,-1.93804 -2.16877,-0.96903 -3.73766,1.45353 -4.10681,2.90707 -0.34608,0.71523 -0.34608,1.68425 -1.19975,2.28413 -0.36915,-1.93805 -1.79961,-0.11536 -2.884,-0.36916 -2.65328,13.15104 -1.93805,26.87888 -1.68425,40.86052 0.96902,2.76864 0,5.30656 0.23072,8.32899 0.7383,-1.82269 0,-4.10682 0.59987,-6.04487 0.25379,1.5689 0.85366,2.90708 0.59987,4.59133 l 0.59987,-5.42192 0.25379,0 0,15.55053 c -0.25379,-13.98163 4.93741,-26.16365 5.1912,-39.54541"
       style="fill:#f9a749"
       id="path4735" /><path
       inkscape:connector-curvature="0"
       d="m 142.2183,625.17484 -0.36916,4.93741 0.36916,-4.10682 0,-0.83059"
       style="fill:#f9a749"
       id="path4761" /><path
       inkscape:connector-curvature="0"
       d="m 111.2326,587.56748 c 0.48451,-0.25379 0.71523,0.34608 1.08438,0.59987 -0.11536,-3.13779 1.68426,-3.02243 -0.23072,-5.79107 -0.85366,-0.59987 -1.70733,-0.96902 -2.90707,-0.85366 -8.91502,8.21363 -12.048201,20.14185 -15.303661,30.01667 l 2.530999,-6.02179 c -1.446615,6.62166 -3.735357,13.61248 -5.786458,20.48793 5.064304,-13.49712 12.6573,-26.279 20.61253,-38.43795"
       style="fill:#f9a749"
       id="path4765" /><path
       inkscape:connector-curvature="0"
       d="m 141.24927,613.96185 0.34608,-6.16022 -0.34608,6.16022"
       style="fill:#f9a749"
       id="path4767" /><path
       inkscape:connector-curvature="0"
       d="m 57.354861,577.18508 0.602179,0.59987 c 6.990816,-4.56825 13.137197,-11.55907 21.092422,-13.61248 1.688871,0.36916 2.411024,0.2538 4.097587,0.2538 0.242256,-0.62295 0,-1.5689 0.844436,-2.05341 1.446614,0.83059 1.686563,-0.85367 2.291049,-1.68426 -0.482205,-0.7383 -1.566589,0.23072 -1.928819,-0.85366 0.722154,-1.45354 3.615382,-0.71523 3.373126,-2.884 -1.324332,-2.16877 -5.78415,-0.11536 -3.975305,-4.34677 l -0.844435,-3.4954 c -12.295069,3.13317 -19.043629,15.54822 -27.84329,23.99257 l 3.735357,-2.53792 c -0.239949,-0.11536 -0.359923,0.11536 -0.482205,0.25379 l -0.602179,-0.62294 c 2.048793,-0.59988 2.530998,-3.11472 4.942022,-3.11472 -0.482205,2.39948 -3.977613,3.59923 -5.301945,6.02179 1.806537,-0.36915 3.4931,-2.53792 5.301945,-3.73767 -1.084384,2.39949 -3.495408,4.4529 -6.146381,6.39095 l -6.026406,7.22153 c 2.411024,-2.39948 4.217562,-4.33753 6.870842,-5.79107"
       style="fill:#f9a749"
       id="path4771" /><path
       inkscape:connector-curvature="0"
       d="m 143.64876,580.92275 c 12.41274,1.33817 23.14122,-3.73767 32.66995,-9.87482 -14.09699,3.6223 -29.27837,9.3903 -43.74451,1.79962 -2.3072,-0.34608 -4.82205,-1.43047 -5.79107,-3.73767 l 0.36915,-0.96902 -2.05341,-0.83059 c 0,0.36915 0.11536,0.71523 -0.25379,0.83059 -0.96902,-0.94595 -3.13779,-0.23072 -4.08374,-1.68426 l 0.23072,-0.23072 c -1.19975,-0.71523 -4.08375,-2.42256 -6.25252,-1.79961 -9.65333,-7.59069 -17.24863,-16.16194 -21.708446,-27.13037 1.086691,0 2.530999,2.04879 2.530999,3.13549 0.36223,0.23994 0.482204,0.72215 0.844435,0.60218 l 0.36223,-0.36224 c -0.724461,1.68657 1.686562,2.16877 2.048792,3.49541 -0.36223,-1.32664 -2.773253,-3.85764 -1.44661,-5.78645 l -4.942025,-7.83295 c -1.566589,0.60218 -1.204358,-1.32664 -1.808845,-1.92882 0.96441,-4.21987 -2.530998,-9.76407 -2.530998,-15.06601 0.119974,-3.85764 -2.288743,-5.90644 -0.602179,-9.28187 l 0.239948,0.23995 c 0.242256,-0.35992 0.96441,-3.13318 -0.479897,-2.28874 -0.362231,-0.72446 0.602179,-0.72446 0.479897,-0.84444 -0.479897,-0.96441 -0.239948,-2.41102 0.604487,-3.13318 l 0.359923,0.23995 c 0.724461,-1.56659 2.051101,-4.21756 1.086691,-6.0264 1.686563,0 1.566589,-2.531 2.288743,-3.85764 0.964409,-5.30195 3.617689,-10.6062 7.595301,-14.94604 0.602184,-1.80654 2.770944,-3.01321 3.735354,-4.69977 1.92882,0.60218 3.86687,-3.0132 5.55113,-1.68887 l -0.36915,0.24226 c 3.36851,-0.96441 2.53792,-4.82205 6.62166,-4.5798 4.47597,-2.65328 9.89789,-0.96441 14.8353,-1.44661 6.39094,-1.56659 11.81286,2.89092 17.60394,1.68656 3.85302,1.20436 7.59068,3.61769 11.55907,3.49541 6.87545,3.37543 14.5815,6.75087 19.40355,14.22389 9.78253,12.77727 14.35078,28.56544 12.18202,45.68256 -3.36852,14.22158 -16.75028,28.92767 -31.81629,30.61193 -17.11943,3.73766 -30.9857,-5.5419 -39.89149,-19.40355 -6.04486,-10.00402 -7.61376,-25.7945 -0.96902,-36.15844 5.42192,-10.48623 17.58086,-13.25948 28.93228,-12.05512 6.25252,0.96441 12.89725,3.37543 15.89661,9.52181 5.67571,8.67969 1.82269,20.61253 0,29.77211 -1.45353,3.13549 -4.70669,4.45982 -7.47533,5.78646 -6.39094,-0.11998 -12.52809,-0.36223 -17.11942,-4.94202 0.96902,-6.75087 -0.34608,-14.7061 6.7601,-18.80368 2.53792,-0.60218 4.45289,-2.41103 7.47532,-1.68657 0.8306,-2.41102 -2.65328,-1.32664 -3.73766,-2.29105 -4.70669,1.80885 -9.27494,4.45982 -10.49776,9.76407 l -1.43046,15.06602 c 1.79961,7.95523 10.9592,7.59299 17.35014,8.91963 7.35997,-1.08438 13.49712,-4.82204 17.95002,-10.96842 1.33817,-4.33985 3.50694,-8.67738 2.65328,-13.61941 1.93804,-4.82204 0,-10.00401 -0.59988,-15.30827 -2.65328,-6.87084 -6.73702,-13.86166 -13.61248,-18.2015 -9.27494,-1.80654 -18.91904,-3.61538 -28.07862,0 -11.81286,3.13318 -21.57232,14.94604 -23.14122,26.87888 -3.25315,19.52814 7.22154,36.8829 22.88743,47.12918 14.30464,9.13651 34.05427,7.17539 47.73597,-3.37544 15.29673,-12.05281 24.34096,-29.40988 22.31062,-49.53789 -0.7383,-17.83927 -12.06666,-33.62975 -27.8479,-42.18715 -7.35997,-2.04879 -15.06602,-6.62859 -22.19527,-6.14869 -6.13715,-0.36223 -11.55907,-1.80654 -18.31917,-0.84213 l -2.51484,-0.84443 0.23072,-1.20436 c 1.08438,0.23995 2.0534,0.35992 3.25315,0.35992 -10.35933,-0.84213 -21.94147,1.20667 -30.12973,6.87084 -1.56659,2.16877 -4.21987,2.16877 -5.78646,3.49541 -10.486223,4.82205 -13.137196,16.51263 -17.354758,25.7945 l -0.242256,2.89323 c 0.482205,-1.44662 1.084384,-2.89323 1.686563,-4.33985 1.32664,3.13549 -1.204358,5.30426 -1.204358,8.67969 -3.977613,9.76176 -0.96441,22.78129 0,31.8209 0.242256,2.16877 2.168768,5.062 1.204358,6.02641 0.604487,2.89092 1.568896,5.42423 2.893229,8.0752 2.650973,-0.48221 1.686563,2.531 2.650973,3.85764 3.135485,3.49541 3.97992,7.95292 8.077507,11.57522 2.168772,0.48451 2.288742,-1.33818 3.977612,0 -1.206664,-1.5689 -1.80884,-0.48451 -3.37543,-1.19974 0.72215,0.23072 1.08438,-1.5689 1.928816,-1.22282 -0.242256,-0.34608 -1.206666,-0.34608 -0.844436,-1.08438 0.724456,-0.34608 1.446616,0.59987 2.0488,1.08438 -0.11998,0.7383 0.60217,1.45354 1.20666,2.42256 1.68656,-0.11536 3.49541,2.16877 3.73536,3.13779 -0.72216,0.94595 -1.08439,-0.7383 -1.80654,-0.62294 l 0.9621,0.85366 -1.20436,0.36915 1.68887,1.68426 0,-0.25379 c 0.95519,-0.59987 2.03957,0 2.63944,0.85366 l -1.19974,0.85367 c 6.87546,2.51484 11.09763,11.18992 18.80368,12.15894 5.1912,3.25315 11.69751,4.47597 18.31917,4.59133 l 0,-0.25379"
       style="fill:#f9a749"
       id="path4773" /><path
       inkscape:connector-curvature="0"
       d="m 139.56502,577.43887 c -1.22282,-0.36915 -2.16877,-1.56889 -3.73767,-1.08438 1.08439,0.71523 2.51485,0.71523 3.73767,1.08438"
       style="fill:#f9a749"
       id="path4775" /><path
       inkscape:connector-curvature="0"
       d="m 133.17407,577.18508 1.19975,0 -1.19975,0"
       style="fill:#f9a749"
       id="path4777" /><path
       inkscape:connector-curvature="0"
       d="m 108.3486,562.11907 -1.45354,-1.43047 1.45354,1.43047"
       style="fill:#f9a749"
       id="path4779" /><path
       inkscape:connector-curvature="0"
       d="m 102.19299,559.83494 -0.24226,0.59987 0.84444,0 -0.60218,-0.59987"
       style="fill:#f9a749"
       id="path4781" /><path
       inkscape:connector-curvature="0"
       d="m 102.79517,559.46579 -1.44662,-1.08439 1.44662,1.08439"
       style="fill:#f9a749"
       id="path4783" /><path
       inkscape:connector-curvature="0"
       d="m 96.768758,555.72812 -0.844435,-0.83059 0.844435,0.83059"
       style="fill:#f9a749"
       id="path4785" /><path
       inkscape:connector-curvature="0"
       d="m 86.642457,550.55538 -0.359923,-1.44661 0.359923,1.44661"
       style="fill:#f9a749"
       id="path4787" /><path
       inkscape:connector-curvature="0"
       d="m 38.308925,533.80049 c 10.246275,0.24226 18.923654,-1.68656 29.169929,-0.60218 0.722154,2.531 4.217562,-0.23994 4.097587,2.29105 2.773255,-0.96441 -0.602179,-2.17107 0.844436,-3.97761 1.686563,-1.08438 3.977612,-1.56659 4.699766,-3.25546 -0.239949,-1.32664 -3.133178,-1.68656 -1.204358,-3.13318 -6.628586,-0.4822 -15.550528,-0.24225 -22.299088,-0.36223 -8.195175,0.96441 -16.1504,2.41103 -23.383472,5.54421 2.530998,0.36223 5.544201,-0.60218 8.0752,-0.23995 -8.797354,1.56659 -16.75258,5.5442 -24.830087,8.91963 l 24.830087,-5.18428"
       style="fill:#f9a749"
       id="path4791" /><path
       inkscape:connector-curvature="0"
       d="m 92.428915,538.98477 -0.36223,-0.84443 0.36223,0.84443"
       style="fill:#f9a749"
       id="path4793" /><path
       inkscape:connector-curvature="0"
       d="m 225.13906,506.92161 c 11.81287,-1.56659 25.19463,0.36223 34.21578,-7.23076 -0.46144,-1.44662 0.62294,-2.0511 1.45354,-2.89323 l -3.85303,1.44661 c -16.98099,1.92882 -37.97651,-4.33984 -49.42022,9.76177 1.19974,1.08438 2.16877,1.44661 3.73766,2.04879 5.1912,0.24226 9.15959,-2.531 13.86627,-3.13318"
       style="fill:#f9a749"
       id="path4795" /><path
       inkscape:connector-curvature="0"
       d="m 78.809513,506.55938 0.242256,0 0,-1.08438 -0.242256,0 0,1.08438 z"
       style="fill:#f9a749"
       id="path4797" /><path
       inkscape:connector-curvature="0"
       d="m 72.783107,499.69085 c 1.084384,0 1.926512,-1.32664 2.530998,-1.80885 l 0.359924,-1.44661 c -0.722154,0.36223 -0.96441,-0.60218 -1.446615,-0.84444 -0.239949,-0.4822 0.362231,-0.60218 0.482205,-0.84212 0.604486,0.23994 0.844435,0.72215 1.446614,0.60218 0.844436,-1.32664 0.844436,-2.0488 1.206666,-3.49541 -0.482205,0 -0.844435,-0.60218 -1.206666,-0.84444 1.446615,-1.08438 -0.119974,-2.531 0.362231,-3.49541 -4.339843,-4.33984 -10.848455,-3.37543 -15.670503,-6.38863 -8.195174,-3.25315 -16.752579,-6.62859 -25.672214,-7.23077 l -8.677379,-1.68887 c 2.650973,1.08669 5.78415,1.80885 8.0752,3.13549 -4.702074,0.36223 -9.521815,-2.0488 -13.861658,-1.44662 4.097587,1.80885 6.990816,4.45982 10.968429,6.62859 -0.242256,0.4822 -0.844435,0.24225 -1.206666,0.36223 l 0.362231,0.23995 -2.048794,0 3.133178,0.60448 -0.239949,0.23995 c -0.119974,0 1.566589,-0.11997 2.048794,0.60218 -0.242256,2.0488 5.544201,0.72446 2.530998,2.29105 0.724461,0.72215 1.68887,0.60218 2.65328,0.60218 l -0.844435,-0.60218 c 3.253152,0 5.424227,2.65097 8.677379,3.73536 2.168768,1.08669 4.579792,1.32664 6.268662,3.49541 l -0.242256,0.36223 c 3.61769,0.84443 6.990816,5.42422 11.33066,5.78645 1.446614,2.41103 5.061996,0.11998 7.715276,0.84213 l 0.96441,0.60449"
       style="fill:#f9a749"
       id="path4799" /><path
       inkscape:connector-curvature="0"
       d="m 85.195843,494.98877 0.242256,0.36224 0.602179,-0.96441 c -1.806537,-0.72216 -0.239949,-3.25316 -0.239949,-3.97762 -1.084384,2.77326 -1.68887,5.42423 -1.808844,8.31746 0.844435,-0.36223 -0.482205,-3.0132 1.204358,-3.73767"
       style="fill:#f9a749"
       id="path4801" /><path
       inkscape:connector-curvature="0"
       d="m 84.353715,486.67132 c -0.36223,-0.23995 -0.36223,-0.60218 -0.36223,-0.96441 l -0.60218,1.80884 0.96441,-0.84443"
       style="fill:#f9a749"
       id="path4803" /><path
       inkscape:connector-curvature="0"
       d="m 84.593664,485.46696 0.242256,-1.20436 -0.242256,1.20436"
       style="fill:#f9a749"
       id="path4805" /><path
       inkscape:connector-curvature="0"
       d="m 218.86348,467.86995 c 5.07584,-3.73767 9.15958,-8.91964 10.98227,-14.46615 -10.98227,5.90874 -23.87952,9.52412 -33.0391,19.89037 0.36915,1.68657 2.28413,0.35993 3.25315,1.20436 l -0.59987,0.60218 c 7.84448,2.65328 12.89725,-4.94202 19.40355,-7.23076"
       style="fill:#f9a749"
       id="path4807" /><path
       inkscape:connector-curvature="0"
       d="m 92.428915,462.92792 c -2.650973,-2.89323 4.097587,-5.30425 -0.36223,-7.5953 C 80.858307,444.48647 68.323289,431.7092 55.908246,420.98072 l 5.301946,5.78646 c -1.806538,0.4822 -3.253152,-1.92882 -4.699767,-2.65097 l -5.184278,-4.94203 c 1.928819,1.92882 4.219869,3.97762 4.582099,6.14638 -3.375433,-2.28874 -6.870841,-4.69976 -10.366249,-6.99081 1.928819,2.77325 4.339843,3.49541 6.026406,5.78646 -0.119974,0.35992 -0.482205,0.35992 -0.844435,0.35992 10.486224,14.10391 22.539037,28.92767 37.002873,40.13836 -0.359923,0.84443 0.604487,1.56889 1.206666,1.80884 1.686563,0 2.650973,-2.16877 3.495408,-3.49541"
       style="fill:#f9a749"
       id="path4809" /><path
       inkscape:connector-curvature="0"
       d="m 99.0575,462.32574 3.49541,-2.65328 c -2.650974,0.60218 -4.94202,1.80885 -6.990817,3.85764 1.446614,0.11998 1.68887,-2.04879 3.495407,-1.20436"
       style="fill:#f9a749"
       id="path4811" /><path
       inkscape:connector-curvature="0"
       d="m 164.39049,456.29703 c -0.36915,-0.23995 -0.85367,-0.35992 -1.45354,-0.35992 0.48451,0.11997 0.96903,0.35992 1.45354,0.35992"
       style="fill:#f9a749"
       id="path4813" /><path
       inkscape:connector-curvature="0"
       d="m 174.5191,446.65524 c 2.884,0.36223 0.48451,-2.41102 1.19974,-3.37543 l -0.85366,-1.80885 c 2.65328,-10.00402 4.33753,-20.85016 3.99145,-31.81859 -7.84448,11.20838 -10.12861,25.07003 -15.91968,37.3651 l 0.36915,0 c 0.59988,0.60218 -0.11536,1.32434 -0.59987,1.68657 2.884,2.17107 8.0752,3.37543 11.55907,1.20666 l 0.2538,-3.25546"
       style="fill:#f9a749"
       id="path4815" /><path
       inkscape:connector-curvature="0"
       d="m 129.66713,442.07545 c -0.83059,-1.20667 1.22281,-1.92882 1.82269,-2.89323 -2.53792,-0.23995 -0.48452,-3.73536 -3.25316,-3.13548 -10.26704,-14.70379 -16.51955,-31.09645 -23.3927,-47.24685 -1.68656,-2.41102 -3.37543,-5.5442 -6.02641,-6.87084 l -0.60218,0.84444 c 7.23077,20.85016 13.38638,42.30482 23.14584,62.19519 l -0.85367,1.68656 2.90708,1.80885 c 2.51484,-1.68887 4.45289,-3.61769 6.25251,-6.38864"
       style="fill:#f9a749"
       id="path4817" /><path
       style="fill:#5dc335;fill-opacity:1;fill-rule:evenodd;stroke:none;stroke-width:0.23999999;stroke-linecap:butt;stroke-linejoin:miter;stroke-miterlimit:4;stroke-dasharray:none;stroke-opacity:1"
       d="m 205.76872,603.21742 c 0,0 19.98219,7.65596 44.16776,-18.96733 22.97227,-25.2876 18.0764,-46.17459 18.0764,-46.17459 0,0 -1.85129,-8.98971 -7.68178,-12.61968 -5.83045,-3.62998 -4.90479,0.86493 -4.19146,3.40083 0.71335,2.53597 7.15734,16.43856 -2.86713,34.30977 -10.02448,17.8712 -21.84695,25.54546 -21.84695,25.54546 0,0 -7.95631,6.26255 -20.88043,9.13837 -11.52565,2.56463 -4.77641,5.36717 -4.77641,5.36717 z"
       id="path4221"
       inkscape:connector-curvature="0"
       sodipodi:nodetypes="cscssscsc" /><path
       style="fill:#5dc335;fill-opacity:1;fill-rule:evenodd;stroke:none;stroke-width:0.16;stroke-linecap:butt;stroke-linejoin:miter;stroke-miterlimit:4;stroke-dasharray:none;stroke-opacity:1"
       d="m 203.31628,584.93041 c 0,0 13.65142,4.28381 28.09492,-9.51538 14.44347,-13.79923 12.48628,-29.66954 12.48628,-29.66954 0,0 -0.41433,-8.57725 -4.91824,-11.25019 -7.35342,-4.36408 -4.8181,1.5597 -4.8181,1.5597 0,0 2.81321,7.97913 -0.89798,19.2867 -3.41792,10.414 -11.04418,16.52442 -11.04418,16.52442 0,0 -5.37107,6.39156 -17.32661,7.96553 -6.49723,0.85537 -1.57609,5.09876 -1.57609,5.09876 z"
       id="path4223"
       inkscape:connector-curvature="0"
       sodipodi:nodetypes="cscscscsc" /><path
       style="display:inline;opacity:1;fill:#5dc335;fill-opacity:1;fill-rule:evenodd;stroke:none;stroke-width:0.1;stroke-linecap:butt;stroke-linejoin:miter;stroke-miterlimit:4;stroke-dasharray:none;stroke-opacity:1"
       d="m 202.64329,567.191 c 4.82239,-0.45737 18.95794,-6.31291 20.78439,-17.31522 1.16409,-7.01216 -1.88451,-10.34789 -3.6335,-11.8732 -0.13005,-0.11344 -0.28748,-0.18096 -0.42562,-0.26518 -2.15417,-1.31338 -3.41679,-1.60627 -4.52959,-0.39937 -1.99705,2.16603 -0.3254,6.30368 -0.12725,10.82072 0.0827,1.88453 -2.59396,5.9154 -3.75065,7.09342 -8.0777,8.22688 -8.81309,5.65444 -10.68131,6.37848 -3.93998,1.52695 -1.50338,5.92703 2.36353,5.56035 z"
       id="path4225"
       inkscape:connector-curvature="0"
       sodipodi:nodetypes="sssssssss" /><path
       inkscape:connector-curvature="0"
       d="m 177.1716,586.11626 c -2.05341,-2.05341 -4.22217,-4.22218 -6.39095,-5.1912 -0.25378,7.35996 3.73767,14.35078 6.13715,21.45696 4.33755,8.0752 6.99083,17.11942 13.26641,24.59475 l 0.8306,2.28413 c -4.93741,-14.21236 -8.30592,-29.16301 -13.84321,-43.14464"
       style="fill:#f9a749"
       id="path4763" /></g><metadata
     id="metadata37"><rdf:RDF><cc:Work><dc:format>image/svg+xml</dc:format><dc:type
           rdf:resource="http://purl.org/dc/dcmitype/StillImage" /><cc:license
           rdf:resource="http://creativecommons.org/publicdomain/zero/1.0/" /><dc:publisher><cc:Agent
             rdf:about="http://openclipart.org/"><dc:title>Openclipart</dc:title></cc:Agent></dc:publisher><dc:title></dc:title><dc:date>2007-11-09T05:00:33</dc:date><dc:description>an image from the US government EPA &quot;Sunwise&quot; program. I converted it from PDF format, and removed all the &quot;sunwise&quot; logos. the source link is here - http://www.epa.gov/sunwise/doc/guide.pdf</dc:description><dc:source>https://openclipart.org/detail/8056/simple-sun-motif-by-ryanlerch</dc:source><dc:creator><cc:Agent><dc:title>ryanlerch</dc:title></cc:Agent></dc:creator><dc:subject><rdf:Bag><rdf:li>epa</rdf:li><rdf:li>epa sunwise</rdf:li><rdf:li>externalsource</rdf:li><rdf:li>sun</rdf:li><rdf:li>sunlight</rdf:li></rdf:Bag></dc:subject></cc:Work><cc:License
         rdf:about="http://creativecommons.org/publicdomain/zero/1.0/"><cc:permits
           rdf:resource="http://creativecommons.org/ns#Reproduction" /><cc:permits
           rdf:resource="http://creativecommons.org/ns#Distribution" /><cc:permits
           rdf:resource="http://creativecommons.org/ns#DerivativeWorks" /></cc:License></rdf:RDF></metadata></svg>
